<svg xmlns="http://www.w3.org/2000/svg" xmlns:xlink="http://www.w3.org/1999/xlink" width="157.376" height="36.715" viewBox="0 0 157.376 36.715">
  <defs>
    <linearGradient id="linear-gradient" x1="0.18" y1="0.031" x2="0.688" y2="0.776" gradientUnits="objectBoundingBox">
      <stop offset="0.193" stop-color="#3484de"/>
      <stop offset="0.981" stop-color="#0055c4"/>
    </linearGradient>
  </defs>
  <g id="Group_286" data-name="Group 286" transform="translate(-89 -53)">
    <path id="Path_346" data-name="Path 346" d="M764.912,565.48l-.016.019-.006-.006a.044.044,0,0,0,.016-.016Z" transform="translate(-644.115 -489.388)" fill="#fff"/>
    <g id="Group_81" data-name="Group 81" transform="translate(124.781 53)">
      <g id="Group_3" data-name="Group 3" transform="translate(2.918 29.851)">
        <path id="Path_4" data-name="Path 4" d="M795.575,596.479a1.7,1.7,0,0,1,.5-.48,1.309,1.309,0,0,1,.717-.191,1.131,1.131,0,0,1,.928.374,1.509,1.509,0,0,1,.307.989v2.394h-.635v-2.323a1.031,1.031,0,0,0-.18-.639.612.612,0,0,0-.519-.237.9.9,0,0,0-.321.06,1.213,1.213,0,0,0-.3.166,1.858,1.858,0,0,0-.268.247,2.241,2.241,0,0,0-.226.3v2.429h-.636v-5.225h.636Z" transform="translate(-794.939 -594.339)" fill="#fff"/>
        <path id="Path_5" data-name="Path 5" d="M833,604.786a.944.944,0,0,1-.537-.134.7.7,0,0,1-.275-.388,2.068,2.068,0,0,1-.568.413,1.567,1.567,0,0,1-.7.159,1.456,1.456,0,0,1-.462-.074,1.062,1.062,0,0,1-.4-.237,1.137,1.137,0,0,1-.275-.424,1.737,1.737,0,0,1-.1-.635v-2.387h.635v2.3a1.048,1.048,0,0,0,.18.66.644.644,0,0,0,.54.23,1.4,1.4,0,0,0,.565-.117,1.666,1.666,0,0,0,.48-.314v-2.761h.635V603.8a.728.728,0,0,0,.036.25.38.38,0,0,0,.091.148.317.317,0,0,0,.134.074.6.6,0,0,0,.156.021Z" transform="translate(-821.674 -599.525)" fill="#fff"/>
        <path id="Path_6" data-name="Path 6" d="M865.709,601.411a1.8,1.8,0,0,1,.5-.5,1.219,1.219,0,0,1,.7-.2,1.079,1.079,0,0,1,1.109.776,2.275,2.275,0,0,1,.519-.551,1.2,1.2,0,0,1,.745-.226,1.264,1.264,0,0,1,.519.1,1,1,0,0,1,.371.279,1.213,1.213,0,0,1,.222.431,1.961,1.961,0,0,1,.074.554v2.394h-.635v-2.344a1.008,1.008,0,0,0-.177-.618.575.575,0,0,0-.487-.237.781.781,0,0,0-.311.064,1.176,1.176,0,0,0-.282.173,1.844,1.844,0,0,0-.254.254,2.905,2.905,0,0,0-.219.3v2.408h-.636v-2.344a1.008,1.008,0,0,0-.176-.618.574.574,0,0,0-.487-.237.8.8,0,0,0-.3.06,1.222,1.222,0,0,0-.286.166,1.692,1.692,0,0,0-.258.247,2.73,2.73,0,0,0-.219.3v2.429h-.635V600.8h.615Z" transform="translate(-848.925 -599.243)" fill="#fff"/>
        <path id="Path_7" data-name="Path 7" d="M908.813,602.654a2.262,2.262,0,0,1,.127-.766,1.878,1.878,0,0,1,.357-.618,1.638,1.638,0,0,1,.551-.41,1.662,1.662,0,0,1,.7-.148,1.46,1.46,0,0,1,.575.109,1.721,1.721,0,0,1,.448.272v-.3h.579v2.782c0,.179.043.3.131.35a.533.533,0,0,0,.286.081l-.134.494a.735.735,0,0,1-.819-.551,2.069,2.069,0,0,1-.195.222,1.274,1.274,0,0,1-.568.328,1.425,1.425,0,0,1-.389.049,1.564,1.564,0,0,1-.646-.134,1.538,1.538,0,0,1-.523-.381,1.851,1.851,0,0,1-.353-.6A2.23,2.23,0,0,1,908.813,602.654Zm1.794,1.335a1.072,1.072,0,0,0,.508-.127,1.266,1.266,0,0,0,.4-.332v-1.97a1.734,1.734,0,0,0-.42-.215,1.441,1.441,0,0,0-.484-.081,1.1,1.1,0,0,0-.466.1,1.053,1.053,0,0,0-.364.279,1.3,1.3,0,0,0-.236.434,1.752,1.752,0,0,0-.084.558,1.7,1.7,0,0,0,.084.547,1.273,1.273,0,0,0,.24.431,1.093,1.093,0,0,0,.364.279A1.05,1.05,0,0,0,910.607,603.988Z" transform="translate(-882.568 -599.243)" fill="#fff"/>
        <path id="Path_8" data-name="Path 8" d="M946.159,601.411a1.76,1.76,0,0,1,.5-.5,1.3,1.3,0,0,1,.731-.2,1.132,1.132,0,0,1,.929.374,1.51,1.51,0,0,1,.307.989v2.394h-.636v-2.323a1.016,1.016,0,0,0-.184-.639.622.622,0,0,0-.523-.237.878.878,0,0,0-.318.06,1.3,1.3,0,0,0-.3.166,1.653,1.653,0,0,0-.268.247,2.409,2.409,0,0,0-.223.3v2.429h-.635V600.8h.614Z" transform="translate(-910.833 -599.243)" fill="#fff"/>
        <path id="Path_9" data-name="Path 9" d="M980.333,595.382a.444.444,0,0,1-.444-.445.413.413,0,0,1,.444-.445.448.448,0,0,1,.445.445.415.415,0,0,1-.445.445Zm.318,4.3h-.636V596.01h.636Z" transform="translate(-937.262 -594.457)" fill="#fff"/>
        <path id="Path_10" data-name="Path 10" d="M1003.52,601.079h2.76v.487l-2.019,2.62h2.055v.565h-2.838v-.5l2.027-2.619h-1.984Z" transform="translate(-955.413 -599.525)" fill="#fff"/>
        <path id="Path_11" data-name="Path 11" d="M1035.967,595.382a.446.446,0,0,1-.445-.445.414.414,0,0,1,.445-.445.446.446,0,0,1,.444.445.414.414,0,0,1-.444.445Zm.318,4.3h-.636V596.01h.636Z" transform="translate(-980.073 -594.457)" fill="#fff"/>
        <path id="Path_12" data-name="Path 12" d="M1061.1,601.411a1.753,1.753,0,0,1,.505-.5,1.3,1.3,0,0,1,.731-.2,1.132,1.132,0,0,1,.928.374,1.513,1.513,0,0,1,.307.989v2.394h-.636v-2.323a1.017,1.017,0,0,0-.184-.639.622.622,0,0,0-.522-.237.875.875,0,0,0-.318.06,1.287,1.287,0,0,0-.3.166,1.614,1.614,0,0,0-.268.247,2.425,2.425,0,0,0-.223.3v2.429h-.636V600.8h.615Z" transform="translate(-999.285 -599.243)" fill="#fff"/>
        <path id="Path_13" data-name="Path 13" d="M1096.014,600.712a1.452,1.452,0,0,1,.569.106,1.681,1.681,0,0,1,.434.262V600.8h.579v3.587a2.261,2.261,0,0,1-.12.783,1.321,1.321,0,0,1-.876.841,2.271,2.271,0,0,1-.692.1,2.549,2.549,0,0,1-.635-.078,1.841,1.841,0,0,1-.544-.233l.233-.551a1.436,1.436,0,0,0,.946.311,1.124,1.124,0,0,0,.787-.261,1.1,1.1,0,0,0,.286-.848V604a1.5,1.5,0,0,1-.406.321,1.255,1.255,0,0,1-.632.152,1.559,1.559,0,0,1-.607-.124,1.535,1.535,0,0,1-.523-.36,1.8,1.8,0,0,1-.364-.579,2.268,2.268,0,0,1,0-1.546,1.894,1.894,0,0,1,.363-.6,1.666,1.666,0,0,1,.54-.4A1.55,1.55,0,0,1,1096.014,600.712Zm.071,3.192a1.017,1.017,0,0,0,.508-.128,1.3,1.3,0,0,0,.368-.3v-1.921a2.175,2.175,0,0,0-.374-.2,1.279,1.279,0,0,0-.509-.092,1.036,1.036,0,0,0-.42.088,1.049,1.049,0,0,0-.356.258,1.241,1.241,0,0,0-.248.413,1.591,1.591,0,0,0-.091.561,1.546,1.546,0,0,0,.091.547,1.285,1.285,0,0,0,.248.417,1.072,1.072,0,0,0,.356.265A1.017,1.017,0,0,0,1096.085,603.9Z" transform="translate(-1025.313 -599.243)" fill="#fff"/>
        <path id="Path_14" data-name="Path 14" d="M1155.9,595.382a.446.446,0,0,1-.445-.445.414.414,0,0,1,.445-.445.446.446,0,0,1,.444.445.413.413,0,0,1-.444.445Zm.318,4.3h-.636V596.01h.636Z" transform="translate(-1072.367 -594.457)" fill="#fff"/>
        <path id="Path_15" data-name="Path 15" d="M1180.993,599.649a1.548,1.548,0,0,1-1.161-.515,1.8,1.8,0,0,1-.349-.6,2.288,2.288,0,0,1-.127-.787,2.218,2.218,0,0,1,.131-.773,1.941,1.941,0,0,1,.353-.614,1.654,1.654,0,0,1,.519-.406,1.391,1.391,0,0,1,.628-.148,1.28,1.28,0,0,1,.632.148,1.773,1.773,0,0,1,.413.3v-1.921h.636v4.335q0,.269.13.35a.536.536,0,0,0,.287.081l-.134.494a.742.742,0,0,1-.82-.537,1.63,1.63,0,0,1-.438.406A1.255,1.255,0,0,1,1180.993,599.649Zm.142-.565a1.063,1.063,0,0,0,.5-.124,1.277,1.277,0,0,0,.4-.321v-1.822a1.393,1.393,0,0,0-.371-.314,1.058,1.058,0,0,0-1-.039,1.074,1.074,0,0,0-.356.29,1.3,1.3,0,0,0-.226.434,1.833,1.833,0,0,0-.078.54,1.647,1.647,0,0,0,.085.544,1.309,1.309,0,0,0,.236.427,1.1,1.1,0,0,0,.36.282A1,1,0,0,0,1181.135,599.084Z" transform="translate(-1090.755 -594.339)" fill="#fff"/>
        <path id="Path_16" data-name="Path 16" d="M1215.237,602.894a1.31,1.31,0,0,0,.36.8,1.074,1.074,0,0,0,.784.29,2.24,2.24,0,0,0,.572-.067,3.126,3.126,0,0,0,.487-.173l.148.544a2.737,2.737,0,0,1-.573.19,3.289,3.289,0,0,1-.713.071,1.867,1.867,0,0,1-.713-.13,1.492,1.492,0,0,1-.54-.374,1.671,1.671,0,0,1-.342-.6,2.544,2.544,0,0,1-.12-.815,2.347,2.347,0,0,1,.12-.763,1.849,1.849,0,0,1,.339-.611,1.529,1.529,0,0,1,1.2-.547,1.664,1.664,0,0,1,.692.134,1.383,1.383,0,0,1,.494.367,1.55,1.55,0,0,1,.3.543,2.159,2.159,0,0,1,.1.657c0,.165-.006.325-.021.48Zm1-1.631a.894.894,0,0,0-.682.282,1.4,1.4,0,0,0-.321.833h2.012a1.172,1.172,0,0,0-.268-.826A.962.962,0,0,0,1216.233,601.263Z" transform="translate(-1117.868 -599.243)" fill="#fff"/>
        <path id="Path_17" data-name="Path 17" d="M1248.01,602.654a2.271,2.271,0,0,1,.127-.766,1.9,1.9,0,0,1,.357-.618,1.644,1.644,0,0,1,.551-.41,1.662,1.662,0,0,1,.7-.148,1.468,1.468,0,0,1,.576.109,1.719,1.719,0,0,1,.448.272v-.3h.579v2.782q0,.269.13.35a.534.534,0,0,0,.286.081l-.134.494a.737.737,0,0,1-.819-.551,2.013,2.013,0,0,1-.194.222,1.271,1.271,0,0,1-.568.328,1.419,1.419,0,0,1-.388.049,1.563,1.563,0,0,1-.646-.134,1.543,1.543,0,0,1-.523-.381,1.862,1.862,0,0,1-.353-.6A2.238,2.238,0,0,1,1248.01,602.654Zm1.794,1.335a1.076,1.076,0,0,0,.508-.127,1.27,1.27,0,0,0,.4-.332v-1.97a1.744,1.744,0,0,0-.42-.215,1.444,1.444,0,0,0-.484-.081,1.092,1.092,0,0,0-.466.1,1.053,1.053,0,0,0-.364.279,1.314,1.314,0,0,0-.237.434,1.766,1.766,0,0,0-.084.558,1.708,1.708,0,0,0,.084.547,1.3,1.3,0,0,0,.24.431,1.1,1.1,0,0,0,.364.279A1.051,1.051,0,0,0,1249.8,603.988Z" transform="translate(-1143.586 -599.243)" fill="#fff"/>
        <path id="Path_18" data-name="Path 18" d="M1283.631,603.642a1.393,1.393,0,0,0,.462.262,1.784,1.784,0,0,0,.6.1,1.1,1.1,0,0,0,.6-.13.388.388,0,0,0,.2-.335.5.5,0,0,0-.038-.2.488.488,0,0,0-.141-.176,1.277,1.277,0,0,0-.279-.166c-.117-.054-.271-.114-.459-.18a2.086,2.086,0,0,1-.777-.42.891.891,0,0,1-.254-.674.842.842,0,0,1,.1-.4.962.962,0,0,1,.275-.321,1.357,1.357,0,0,1,.438-.215,2.042,2.042,0,0,1,.59-.078,2.4,2.4,0,0,1,.632.074,2.491,2.491,0,0,1,.491.187l-.177.522a1.882,1.882,0,0,0-.434-.184,1.942,1.942,0,0,0-.54-.07.9.9,0,0,0-.558.148.415.415,0,0,0-.191.325.373.373,0,0,0,.032.156.352.352,0,0,0,.116.134,1.2,1.2,0,0,0,.226.127q.141.064.353.134a4.567,4.567,0,0,1,.586.244,1.528,1.528,0,0,1,.388.272.87.87,0,0,1,.212.321,1.1,1.1,0,0,1,.064.385.931.931,0,0,1-.106.445.988.988,0,0,1-.3.335,1.426,1.426,0,0,1-.462.212,2.3,2.3,0,0,1-.6.074,2.467,2.467,0,0,1-.755-.106,1.776,1.776,0,0,1-.551-.275Z" transform="translate(-1170.792 -599.243)" fill="#fff"/>
      </g>
      <g id="Group_6" data-name="Group 6" transform="translate(0)">
        <path id="Path_19" data-name="Path 19" d="M793.446,496.659a3.955,3.955,0,0,0-.643-1.721,2.7,2.7,0,0,0-2.336-1.032,3.076,3.076,0,0,0-3.089,2.237,9.283,9.283,0,0,0-.439,3.152,8.535,8.535,0,0,0,.439,3.012,2.981,2.981,0,0,0,3.011,2.127,2.659,2.659,0,0,0,2.227-.845,4.2,4.2,0,0,0,.8-2.19h4.552a7.457,7.457,0,0,1-1.472,3.848,7.158,7.158,0,0,1-6.216,2.926q-4.118,0-6.06-2.44a9.856,9.856,0,0,1-1.942-6.328,10,10,0,0,1,2.145-6.827,7.47,7.47,0,0,1,5.919-2.44,8.919,8.919,0,0,1,5.253,1.439q2.043,1.439,2.419,5.084Z" transform="translate(-782.277 -484.301)" fill="#fff"/>
        <path id="Path_20" data-name="Path 20" d="M873.106,490.144q.086.008.383.023v4.568q-.422-.047-.751-.063c-.219-.01-.4-.015-.532-.015q-2.691,0-3.613,1.752a6.814,6.814,0,0,0-.516,3.035v8.15h-4.49V490.543h4.255v2.972a9.426,9.426,0,0,1,1.8-2.331,4.9,4.9,0,0,1,3.254-1.048C872.978,490.136,873.049,490.139,873.106,490.144Z" transform="translate(-844.847 -484.301)" fill="#fff"/>
        <path id="Path_21" data-name="Path 21" d="M922.5,490.731a6.936,6.936,0,0,1,2.946,2.522,8.377,8.377,0,0,1,1.359,3.525,21.76,21.76,0,0,1,.146,3.384H914.534a4.091,4.091,0,0,0,1.783,3.6,4.53,4.53,0,0,0,2.458.641,3.461,3.461,0,0,0,3.393-1.955h4.552a5.57,5.57,0,0,1-1.653,3.082,8.287,8.287,0,0,1-6.415,2.487,9.3,9.3,0,0,1-6.006-2.1q-2.6-2.1-2.6-6.826,0-4.43,2.349-6.795a8.221,8.221,0,0,1,6.1-2.364A9.709,9.709,0,0,1,922.5,490.731Zm-6.67,3.851a4.632,4.632,0,0,0-1.188,2.639h7.681a3.721,3.721,0,0,0-1.188-2.694,3.905,3.905,0,0,0-2.644-.919A3.535,3.535,0,0,0,915.832,494.583Z" transform="translate(-880.597 -484.144)" fill="#fff"/>
        <path id="Path_22" data-name="Path 22" d="M999.078,497.222a7.052,7.052,0,0,0,1.781-.391,1.342,1.342,0,0,0,.961-1.267,1.5,1.5,0,0,0-.737-1.447,4.659,4.659,0,0,0-2.164-.4,2.842,2.842,0,0,0-2.267.782,3.222,3.222,0,0,0-.634,1.564h-4.3a6.522,6.522,0,0,1,1.257-3.676q1.775-2.252,6.1-2.253a10.869,10.869,0,0,1,5,1.111q2.184,1.111,2.184,4.192v7.822q0,.813.031,1.971a2.475,2.475,0,0,0,.266,1.189,1.6,1.6,0,0,0,.657.516v.657h-4.849a4.929,4.929,0,0,1-.281-.97q-.079-.454-.125-1.033a9.209,9.209,0,0,1-2.14,1.705,6.47,6.47,0,0,1-3.273.829,5.647,5.647,0,0,1-3.847-1.322,4.7,4.7,0,0,1-1.518-3.746,4.855,4.855,0,0,1,2.443-4.552,10.905,10.905,0,0,1,3.939-1.1Zm2.726,2.081a4.907,4.907,0,0,1-.864.43,7.287,7.287,0,0,1-1.2.305l-1.015.188a6.672,6.672,0,0,0-2.049.61,2.036,2.036,0,0,0-1.053,1.893,1.977,1.977,0,0,0,.643,1.65,2.445,2.445,0,0,0,1.565.508,4.66,4.66,0,0,0,2.692-.844,3.577,3.577,0,0,0,1.278-3.082Z" transform="translate(-943.022 -484.301)" fill="#fff"/>
        <path id="Path_23" data-name="Path 23" d="M1064.893,479.877V476.7h2.378v-4.755h4.411V476.7h2.769v3.176h-2.769v9.01a2.029,2.029,0,0,0,.266,1.306,2.929,2.929,0,0,0,1.627.258c.135,0,.279,0,.43-.008s.3-.013.446-.023v3.332l-2.112.078q-3.16.11-4.317-1.095a3.26,3.26,0,0,1-.751-2.362v-10.5Z" transform="translate(-999.756 -470.304)" fill="#fff"/>
        <path id="Path_24" data-name="Path 24" d="M1124.577,469.341h-4.521v-4.114h4.521Zm-4.521,2.034h4.521v17.051h-4.521Z" transform="translate(-1042.205 -465.133)" fill="#fff"/>
        <path id="Path_25" data-name="Path 25" d="M1160.609,464.844q.344.023.938.07v3.629q-.375-.047-1.259-.07a1.45,1.45,0,0,0-1.22.391,1.42,1.42,0,0,0-.336.915v1.439h2.925v3.144h-2.925v13.75H1154.3v-13.75h-2.5v-3.144h2.441v-1.1q0-2.737.923-3.77.969-1.533,4.677-1.533Q1160.264,464.82,1160.609,464.844Z" transform="translate(-1066.634 -464.82)" fill="#fff"/>
        <path id="Path_26" data-name="Path 26" d="M1210.484,469.341h-4.521v-4.114h4.521Zm-4.521,2.034h4.521v17.051h-4.521Z" transform="translate(-1108.312 -465.133)" fill="#fff"/>
        <path id="Path_27" data-name="Path 27" d="M1248.927,490.731a6.938,6.938,0,0,1,2.946,2.522,8.382,8.382,0,0,1,1.359,3.525,21.76,21.76,0,0,1,.146,3.384h-12.418a4.091,4.091,0,0,0,1.783,3.6,4.529,4.529,0,0,0,2.458.641,3.463,3.463,0,0,0,3.393-1.955h4.552a5.565,5.565,0,0,1-1.653,3.082,8.286,8.286,0,0,1-6.415,2.487,9.3,9.3,0,0,1-6.006-2.1q-2.6-2.1-2.6-6.826,0-4.43,2.349-6.795a8.221,8.221,0,0,1,6.1-2.364A9.71,9.71,0,0,1,1248.927,490.731Zm-6.67,3.851a4.631,4.631,0,0,0-1.187,2.639h7.68a3.721,3.721,0,0,0-1.187-2.694,3.907,3.907,0,0,0-2.644-.919A3.536,3.536,0,0,0,1242.258,494.583Z" transform="translate(-1131.789 -484.144)" fill="#fff"/>
      </g>
    </g>
    <g id="Group_82" data-name="Group 82" transform="translate(89 55.517)">
      <g id="Group_1" data-name="Group 1" transform="translate(0 0)">
        <path id="Path_1" data-name="Path 1" d="M626.166,493.6a7.422,7.422,0,0,0,2.477,10.2l13.522,8.2a7.832,7.832,0,0,1-1.18,1.13c-.11.09-.237.177-.368.267-.066.045-.132.091-.2.131a8,8,0,0,1-4.368,1.286H620.412a8.07,8.07,0,0,1-8.07-8.069V491.1a8.074,8.074,0,0,1,8.07-8.07h15.634a8.071,8.071,0,0,1,8.07,8.07v4.726l-7.757-4.7a7.416,7.416,0,0,0-10.193,2.471Z" transform="translate(-612.342 -483.033)" fill="url(#linear-gradient)"/>
      </g>
      <path id="Path_2" data-name="Path 2" d="M685.323,565.791s-.01.01-.025.03a6.624,6.624,0,0,1-1.191,1.12c-.11.09-.237.177-.368.267-.066.045-.132.091-.2.131a8.277,8.277,0,0,1-4.5,1.286h-4.791s-5.235-11.872-5.866-15.655l.025.02a7.4,7.4,0,0,0,3.359,4.625l13.522,8.2a.069.069,0,0,0,.026-.026Z" transform="translate(-655.466 -536.851)" fill="#0000de"/>
    </g>
  </g>
</svg>
