<svg xmlns="http://www.w3.org/2000/svg" width="47.427" height="47.427" viewBox="0 0 47.427 47.427">
  <g id="Group_273" data-name="Group 273" transform="translate(0.001)">
    <rect id="Rectangle_124" data-name="Rectangle 124" width="47.427" height="47.427" rx="8.469" transform="translate(-0.001)" fill="#b1b1b1"/>
    <g id="Group_272" data-name="Group 272" transform="translate(10.711 10.711)">
      <path id="Path_1244" data-name="Path 1244" d="M107.716,365.124c3.472,0,3.883.013,5.254.076a7.179,7.179,0,0,1,2.414.447,4.31,4.31,0,0,1,2.468,2.468,7.207,7.207,0,0,1,.447,2.415c.063,1.37.076,1.782.076,5.253s-.013,3.883-.076,5.254a7.207,7.207,0,0,1-.447,2.415,4.3,4.3,0,0,1-2.468,2.467,7.2,7.2,0,0,1-2.414.448c-1.371.063-1.782.076-5.254.076s-3.883-.013-5.254-.076a7.194,7.194,0,0,1-2.414-.448,4.3,4.3,0,0,1-2.468-2.467,7.2,7.2,0,0,1-.448-2.415c-.062-1.371-.076-1.782-.076-5.254s.014-3.883.076-5.253a7.2,7.2,0,0,1,.448-2.415,4.3,4.3,0,0,1,2.468-2.468,7.173,7.173,0,0,1,2.414-.447c1.371-.063,1.782-.076,5.254-.076m0-2.343c-3.531,0-3.974.015-5.361.078a9.573,9.573,0,0,0-3.156.6,6.644,6.644,0,0,0-3.8,3.8,9.55,9.55,0,0,0-.6,3.156c-.063,1.386-.078,1.829-.078,5.36s.015,3.974.078,5.361a9.55,9.55,0,0,0,.6,3.156,6.652,6.652,0,0,0,3.8,3.8,9.549,9.549,0,0,0,3.156.6c1.387.064,1.83.078,5.361.078s3.974-.014,5.361-.078a9.555,9.555,0,0,0,3.156-.6,6.646,6.646,0,0,0,3.8-3.8,9.521,9.521,0,0,0,.6-3.156c.063-1.387.078-1.829.078-5.361s-.015-3.974-.078-5.36a9.521,9.521,0,0,0-.6-3.156,6.639,6.639,0,0,0-3.8-3.8,9.579,9.579,0,0,0-3.156-.6c-1.387-.063-1.83-.078-5.361-.078" transform="translate(-94.714 -362.781)" fill="#fff"/>
      <path id="Path_1245" data-name="Path 1245" d="M107.716,369.107a6.676,6.676,0,1,0,6.676,6.676,6.676,6.676,0,0,0-6.676-6.676m0,11.01a4.334,4.334,0,1,1,4.334-4.334,4.333,4.333,0,0,1-4.334,4.334" transform="translate(-94.714 -362.781)" fill="#fff"/>
      <path id="Path_1246" data-name="Path 1246" d="M116.217,368.843a1.561,1.561,0,1,1-1.561-1.561,1.561,1.561,0,0,1,1.561,1.561" transform="translate(-94.714 -362.781)" fill="#fff"/>
    </g>
  </g>
</svg>
