<svg xmlns="http://www.w3.org/2000/svg" width="47.427" height="47.427" viewBox="0 0 47.427 47.427">
  <g id="Group_277" data-name="Group 277" transform="translate(0)">
    <rect id="Rectangle_125" data-name="Rectangle 125" width="47.427" height="47.427" rx="8.469" transform="translate(0)" fill="#b1b1b1"/>
    <g id="Group_276" data-name="Group 276" transform="translate(12.489 10.5)">
      <g id="Group_275" data-name="Group 275">
        <rect id="Rectangle_126" data-name="Rectangle 126" width="4.908" height="15.855" transform="translate(0.471 7.927)" fill="#fff"/>
        <path id="Path_1247" data-name="Path 1247" d="M216.145,425.328a2.926,2.926,0,1,0-2.9-2.926A2.915,2.915,0,0,0,216.145,425.328Z" transform="translate(-213.243 -419.477)" fill="#fff"/>
      </g>
      <path id="Path_1248" data-name="Path 1248" d="M226.467,434.936c0-2.228,1.026-3.557,2.991-3.557,1.8,0,2.671,1.275,2.671,3.557v8.323h4.885V433.22c0-4.246-2.407-6.3-5.769-6.3a5.528,5.528,0,0,0-4.778,2.62V427.4H221.76v15.855h4.707Z" transform="translate(-213.243 -419.477)" fill="#fff"/>
    </g>
  </g>
</svg>
