<svg xmlns="http://www.w3.org/2000/svg" width="47.427" height="47.427" viewBox="0 0 47.427 47.427">
  <g id="Group_270" data-name="Group 270" transform="translate(0)">
    <rect id="Rectangle_122" data-name="Rectangle 122" width="47.427" height="47.427" rx="8.469" transform="translate(0)" fill="#b1b1b1"/>
    <path id="Path_1242" data-name="Path 1242" d="M154.112,383.722a14.744,14.744,0,0,0,22.682-13.093,10.51,10.51,0,0,0,2.587-2.683,10.37,10.37,0,0,1-2.977.816,5.2,5.2,0,0,0,2.278-2.868,10.366,10.366,0,0,1-3.291,1.258,5.188,5.188,0,0,0-8.834,4.729,14.716,14.716,0,0,1-10.686-5.417,5.191,5.191,0,0,0,1.6,6.922,5.168,5.168,0,0,1-2.349-.649,5.19,5.19,0,0,0,4.158,5.149,5.187,5.187,0,0,1-2.34.089,5.186,5.186,0,0,0,4.842,3.6A10.418,10.418,0,0,1,154.112,383.722Z" transform="translate(-143.033 -352.07)" fill="#fff"/>
  </g>
</svg>
