<svg xmlns="http://www.w3.org/2000/svg" width="47.427" height="47.427" viewBox="0 0 47.427 47.427">
  <g id="Group_279" data-name="Group 279" transform="translate(-0.001)">
    <rect id="Rectangle_127" data-name="Rectangle 127" width="47.427" height="47.427" rx="8.469" transform="translate(0.001)" fill="#b1b1b1"/>
    <g id="Group_278" data-name="Group 278" transform="translate(4.735 10.342)">
      <path id="Path_1249" data-name="Path 1249" d="M296.747,423.495a4.769,4.769,0,0,0-3.355-3.378c-2.96-.8-14.83-.8-14.83-.8s-11.869,0-14.83.8a4.769,4.769,0,0,0-3.355,3.378c-.794,2.979-.794,9.2-.794,9.2s0,6.216.794,9.2a4.767,4.767,0,0,0,3.355,3.377c2.961.8,14.83.8,14.83.8s11.87,0,14.83-.8a4.767,4.767,0,0,0,3.355-3.377c.794-2.98.794-9.2.794-9.2S297.541,426.474,296.747,423.495Z" transform="translate(-259.583 -419.319)" fill="#fff"/>
      <path id="Path_1250" data-name="Path 1250" d="M274.68,438.334V427.047l9.921,5.644Z" transform="translate(-259.583 -419.319)" fill="#9c9b9b"/>
    </g>
  </g>
</svg>
