<svg xmlns="http://www.w3.org/2000/svg" xmlns:xlink="http://www.w3.org/1999/xlink" width="220.25" height="51.383" viewBox="0 0 220.25 51.383">
  <defs>
    <linearGradient id="linear-gradient" x1="0.18" y1="0.031" x2="0.688" y2="0.776" gradientUnits="objectBoundingBox">
      <stop offset="0.193" stop-color="#3484de"/>
      <stop offset="0.981" stop-color="#0055c4"/>
    </linearGradient>
  </defs>
  <g id="Group_83" data-name="Group 83" transform="translate(-89 -53)">
    <path id="Path_346" data-name="Path 346" d="M764.92,565.481s-.008.009-.022.027l-.009-.008a.063.063,0,0,0,.023-.022Z" transform="translate(-631.421 -480.164)" fill="#fff"/>
    <g id="Group_81" data-name="Group 81" transform="translate(139.076 53)">
      <g id="Group_3" data-name="Group 3" transform="translate(4.084 41.777)">
        <path id="Path_4" data-name="Path 4" d="M795.829,597.333a2.383,2.383,0,0,1,.7-.672,1.831,1.831,0,0,1,1-.267,1.583,1.583,0,0,1,1.3.524,2.112,2.112,0,0,1,.43,1.384v3.35h-.889V598.4a1.442,1.442,0,0,0-.252-.894.857.857,0,0,0-.726-.331,1.267,1.267,0,0,0-.45.084,1.7,1.7,0,0,0-.42.232,2.6,2.6,0,0,0-.376.346,3.141,3.141,0,0,0-.316.415v3.4h-.89v-7.313h.89Z" transform="translate(-794.939 -594.339)"/>
        <path id="Path_5" data-name="Path 5" d="M834.326,606.267a1.322,1.322,0,0,1-.751-.188.975.975,0,0,1-.385-.543,2.9,2.9,0,0,1-.8.578,2.193,2.193,0,0,1-.984.222,2.036,2.036,0,0,1-.647-.1,1.485,1.485,0,0,1-.554-.331,1.591,1.591,0,0,1-.385-.593,2.432,2.432,0,0,1-.143-.888v-3.341h.889V604.3a1.467,1.467,0,0,0,.252.924.9.9,0,0,0,.756.321,1.966,1.966,0,0,0,.791-.163,2.334,2.334,0,0,0,.672-.44v-3.864h.889v3.8a1.019,1.019,0,0,0,.05.351.532.532,0,0,0,.128.208.443.443,0,0,0,.188.1.842.842,0,0,0,.218.03Z" transform="translate(-818.475 -598.904)"/>
        <path id="Path_6" data-name="Path 6" d="M865.955,601.69a2.511,2.511,0,0,1,.7-.7,1.706,1.706,0,0,1,.973-.281,1.51,1.51,0,0,1,1.552,1.087,3.182,3.182,0,0,1,.726-.771,1.684,1.684,0,0,1,1.042-.316,1.769,1.769,0,0,1,.726.138,1.4,1.4,0,0,1,.519.39,1.7,1.7,0,0,1,.311.6,2.745,2.745,0,0,1,.1.775v3.35h-.889v-3.281a1.411,1.411,0,0,0-.247-.864.8.8,0,0,0-.682-.331,1.092,1.092,0,0,0-.435.089,1.65,1.65,0,0,0-.4.242,2.587,2.587,0,0,0-.356.356,4.066,4.066,0,0,0-.306.42v3.37h-.89v-3.281a1.411,1.411,0,0,0-.247-.864.8.8,0,0,0-.682-.331,1.127,1.127,0,0,0-.425.084,1.712,1.712,0,0,0-.4.232,2.361,2.361,0,0,0-.361.346,3.8,3.8,0,0,0-.306.415v3.4h-.889V600.83h.86Z" transform="translate(-842.466 -598.656)"/>
        <path id="Path_7" data-name="Path 7" d="M908.813,603.429a3.164,3.164,0,0,1,.178-1.072,2.626,2.626,0,0,1,.5-.865,2.293,2.293,0,0,1,.771-.574,2.327,2.327,0,0,1,.983-.207,2.043,2.043,0,0,1,.805.153,2.409,2.409,0,0,1,.628.381v-.415h.811v3.893c0,.251.06.414.183.49a.746.746,0,0,0,.4.114l-.188.691a1.029,1.029,0,0,1-1.146-.771,2.888,2.888,0,0,1-.272.311,1.785,1.785,0,0,1-.8.46,1.994,1.994,0,0,1-.544.069,2.19,2.19,0,0,1-.9-.188,2.154,2.154,0,0,1-.732-.533,2.589,2.589,0,0,1-.494-.835A3.122,3.122,0,0,1,908.813,603.429Zm2.51,1.868a1.5,1.5,0,0,0,.711-.178,1.77,1.77,0,0,0,.563-.465V601.9a2.423,2.423,0,0,0-.588-.3,2.018,2.018,0,0,0-.677-.114,1.532,1.532,0,0,0-.652.138,1.476,1.476,0,0,0-.509.391,1.813,1.813,0,0,0-.331.607,2.451,2.451,0,0,0-.118.781,2.371,2.371,0,0,0,.118.766,1.78,1.78,0,0,0,.336.6,1.529,1.529,0,0,0,.509.39A1.47,1.47,0,0,0,911.323,605.3Z" transform="translate(-872.082 -598.656)"/>
        <path id="Path_8" data-name="Path 8" d="M946.4,601.69a2.464,2.464,0,0,1,.706-.7,1.826,1.826,0,0,1,1.023-.281,1.585,1.585,0,0,1,1.3.523,2.114,2.114,0,0,1,.43,1.384v3.35h-.89v-3.251a1.422,1.422,0,0,0-.257-.894.871.871,0,0,0-.731-.331,1.229,1.229,0,0,0-.445.084,1.82,1.82,0,0,0-.42.232,2.314,2.314,0,0,0-.376.346,3.378,3.378,0,0,0-.311.415v3.4h-.89V600.83h.86Z" transform="translate(-896.965 -598.656)"/>
        <path id="Path_9" data-name="Path 9" d="M980.511,595.737a.622.622,0,0,1-.622-.623.578.578,0,0,1,.622-.622.627.627,0,0,1,.623.622.581.581,0,0,1-.623.623Zm.445,6.018h-.89v-5.138h.89Z" transform="translate(-920.232 -594.443)"/>
        <path id="Path_10" data-name="Path 10" d="M1003.537,601.079h3.863v.682l-2.826,3.666h2.875v.79h-3.972v-.7l2.836-3.666h-2.777Z" transform="translate(-936.211 -598.904)"/>
        <path id="Path_11" data-name="Path 11" d="M1036.145,595.737a.625.625,0,0,1-.623-.623.58.58,0,0,1,.623-.622.624.624,0,0,1,.622.622.579.579,0,0,1-.622.623Zm.445,6.018h-.89v-5.138h.89Z" transform="translate(-957.92 -594.443)"/>
        <path id="Path_12" data-name="Path 12" d="M1061.348,601.69a2.454,2.454,0,0,1,.707-.7,1.823,1.823,0,0,1,1.023-.281,1.585,1.585,0,0,1,1.3.523,2.117,2.117,0,0,1,.43,1.384v3.35h-.89v-3.251a1.423,1.423,0,0,0-.257-.894.87.87,0,0,0-.73-.331,1.224,1.224,0,0,0-.445.084,1.8,1.8,0,0,0-.42.232,2.261,2.261,0,0,0-.375.346,3.377,3.377,0,0,0-.312.415v3.4h-.89V600.83h.86Z" transform="translate(-974.833 -598.656)"/>
        <path id="Path_13" data-name="Path 13" d="M1096.693,600.712a2.032,2.032,0,0,1,.8.148,2.349,2.349,0,0,1,.608.366v-.4h.81v5.02a3.162,3.162,0,0,1-.168,1.1,1.85,1.85,0,0,1-1.226,1.176,3.178,3.178,0,0,1-.968.138,3.571,3.571,0,0,1-.889-.108,2.576,2.576,0,0,1-.761-.326l.326-.771a2.009,2.009,0,0,0,1.323.435,1.573,1.573,0,0,0,1.1-.366,1.54,1.54,0,0,0,.4-1.186v-.632a2.1,2.1,0,0,1-.568.45,1.755,1.755,0,0,1-.885.212,2.182,2.182,0,0,1-.85-.173,2.146,2.146,0,0,1-.732-.5,2.522,2.522,0,0,1-.509-.81,3.175,3.175,0,0,1,0-2.164,2.658,2.658,0,0,1,.509-.845,2.333,2.333,0,0,1,.755-.558A2.169,2.169,0,0,1,1096.693,600.712Zm.1,4.467a1.424,1.424,0,0,0,.711-.178,1.826,1.826,0,0,0,.514-.415V601.9a3.031,3.031,0,0,0-.523-.287,1.788,1.788,0,0,0-.712-.129,1.45,1.45,0,0,0-.588.124,1.47,1.47,0,0,0-.5.361,1.741,1.741,0,0,0-.347.578,2.227,2.227,0,0,0-.128.785,2.165,2.165,0,0,0,.128.766,1.8,1.8,0,0,0,.347.583,1.5,1.5,0,0,0,.5.371A1.424,1.424,0,0,0,1096.793,605.179Z" transform="translate(-997.747 -598.656)"/>
        <path id="Path_14" data-name="Path 14" d="M1156.082,595.737a.624.624,0,0,1-.623-.623.58.58,0,0,1,.623-.622.625.625,0,0,1,.622.622.579.579,0,0,1-.622.623Zm.445,6.018h-.89v-5.138h.89Z" transform="translate(-1039.171 -594.443)"/>
        <path id="Path_15" data-name="Path 15" d="M1181.647,601.77a2.166,2.166,0,0,1-1.625-.721,2.514,2.514,0,0,1-.489-.835,3.2,3.2,0,0,1-.178-1.1,3.1,3.1,0,0,1,.184-1.082,2.719,2.719,0,0,1,.494-.859,2.314,2.314,0,0,1,.726-.569,1.946,1.946,0,0,1,.879-.207,1.791,1.791,0,0,1,.884.207,2.478,2.478,0,0,1,.578.425v-2.688h.89v6.068q0,.376.182.49a.75.75,0,0,0,.4.114l-.188.692a1.038,1.038,0,0,1-1.147-.751,2.283,2.283,0,0,1-.613.568A1.756,1.756,0,0,1,1181.647,601.77Zm.2-.79a1.489,1.489,0,0,0,.7-.173,1.788,1.788,0,0,0,.558-.45v-2.549a1.953,1.953,0,0,0-.519-.44,1.4,1.4,0,0,0-.747-.2,1.413,1.413,0,0,0-.646.148,1.505,1.505,0,0,0-.5.405,1.821,1.821,0,0,0-.317.607,2.562,2.562,0,0,0-.109.756,2.309,2.309,0,0,0,.119.761,1.833,1.833,0,0,0,.331.6,1.539,1.539,0,0,0,.5.395A1.4,1.4,0,0,0,1181.845,600.98Z" transform="translate(-1055.359 -594.339)"/>
        <path id="Path_16" data-name="Path 16" d="M1215.5,603.765a1.833,1.833,0,0,0,.5,1.126,1.5,1.5,0,0,0,1.1.406,3.136,3.136,0,0,0,.8-.094,4.379,4.379,0,0,0,.682-.242l.208.761a3.823,3.823,0,0,1-.8.267,4.6,4.6,0,0,1-1,.1,2.613,2.613,0,0,1-1-.183,2.087,2.087,0,0,1-.756-.524,2.336,2.336,0,0,1-.479-.84,3.557,3.557,0,0,1-.167-1.141,3.281,3.281,0,0,1,.167-1.067,2.587,2.587,0,0,1,.474-.855,2.14,2.14,0,0,1,1.68-.766,2.329,2.329,0,0,1,.968.188,1.936,1.936,0,0,1,.691.514,2.171,2.171,0,0,1,.415.76,3.024,3.024,0,0,1,.138.919c0,.231-.009.455-.029.672Zm1.394-2.283a1.251,1.251,0,0,0-.954.4,1.957,1.957,0,0,0-.449,1.167h2.816a1.641,1.641,0,0,0-.375-1.156A1.346,1.346,0,0,0,1216.89,601.483Z" transform="translate(-1079.227 -598.656)"/>
        <path id="Path_17" data-name="Path 17" d="M1248.01,603.429a3.176,3.176,0,0,1,.177-1.072,2.658,2.658,0,0,1,.5-.865,2.3,2.3,0,0,1,.771-.574,2.326,2.326,0,0,1,.983-.207,2.054,2.054,0,0,1,.806.153,2.407,2.407,0,0,1,.627.381v-.415h.811v3.893q0,.376.183.49a.747.747,0,0,0,.4.114l-.188.691a1.031,1.031,0,0,1-1.147-.771,2.826,2.826,0,0,1-.272.311,1.778,1.778,0,0,1-.8.46,1.986,1.986,0,0,1-.544.069,2.188,2.188,0,0,1-.9-.188,2.159,2.159,0,0,1-.732-.533,2.6,2.6,0,0,1-.494-.835A3.134,3.134,0,0,1,1248.01,603.429Zm2.511,1.868a1.505,1.505,0,0,0,.711-.178,1.777,1.777,0,0,0,.563-.465V601.9a2.445,2.445,0,0,0-.588-.3,2.022,2.022,0,0,0-.677-.114,1.528,1.528,0,0,0-.652.138,1.474,1.474,0,0,0-.51.391,1.838,1.838,0,0,0-.331.607,2.47,2.47,0,0,0-.118.781,2.39,2.39,0,0,0,.118.766,1.813,1.813,0,0,0,.336.6,1.537,1.537,0,0,0,.51.39A1.472,1.472,0,0,0,1250.521,605.3Z" transform="translate(-1101.868 -598.656)"/>
        <path id="Path_18" data-name="Path 18" d="M1283.738,604.813a1.947,1.947,0,0,0,.647.366,2.5,2.5,0,0,0,.835.138,1.544,1.544,0,0,0,.834-.183.543.543,0,0,0,.281-.469.7.7,0,0,0-.053-.277.683.683,0,0,0-.2-.247,1.792,1.792,0,0,0-.391-.232c-.164-.076-.38-.16-.642-.252a2.919,2.919,0,0,1-1.088-.588,1.247,1.247,0,0,1-.355-.944,1.18,1.18,0,0,1,.134-.554,1.347,1.347,0,0,1,.385-.449,1.9,1.9,0,0,1,.613-.3,2.857,2.857,0,0,1,.825-.109,3.37,3.37,0,0,1,.884.1,3.482,3.482,0,0,1,.687.262l-.247.731a2.637,2.637,0,0,0-.607-.257,2.717,2.717,0,0,0-.756-.1,1.252,1.252,0,0,0-.78.207.581.581,0,0,0-.267.454.523.523,0,0,0,.045.218.5.5,0,0,0,.163.188,1.691,1.691,0,0,0,.317.178q.2.089.494.188a6.38,6.38,0,0,1,.82.341,2.137,2.137,0,0,1,.543.381,1.217,1.217,0,0,1,.3.449,1.541,1.541,0,0,1,.089.539,1.3,1.3,0,0,1-.148.622,1.384,1.384,0,0,1-.415.469,1.992,1.992,0,0,1-.647.3,3.222,3.222,0,0,1-.845.1,3.453,3.453,0,0,1-1.057-.149,2.486,2.486,0,0,1-.771-.385Z" transform="translate(-1125.818 -598.656)"/>
      </g>
      <g id="Group_6" data-name="Group 6" transform="translate(0)">
        <path id="Path_19" data-name="Path 19" d="M797.908,499.265a5.536,5.536,0,0,0-.9-2.408,3.777,3.777,0,0,0-3.27-1.445,4.3,4.3,0,0,0-4.323,3.13,12.992,12.992,0,0,0-.614,4.411,11.945,11.945,0,0,0,.614,4.215,4.173,4.173,0,0,0,4.214,2.977,3.721,3.721,0,0,0,3.116-1.182,5.88,5.88,0,0,0,1.119-3.065h6.371a10.437,10.437,0,0,1-2.06,5.385q-2.937,4.094-8.7,4.094t-8.481-3.415a13.793,13.793,0,0,1-2.717-8.856q0-6.14,3-9.555a10.455,10.455,0,0,1,8.284-3.415,12.482,12.482,0,0,1,7.352,2.014q2.859,2.014,3.386,7.115Z" transform="translate(-782.277 -481.97)"/>
        <path id="Path_20" data-name="Path 20" d="M876.909,490.147q.12.011.536.033v6.393q-.591-.066-1.051-.088c-.306-.014-.555-.022-.744-.022q-3.765,0-5.057,2.452a9.537,9.537,0,0,0-.722,4.247v11.406h-6.283V490.705h5.955v4.16a13.192,13.192,0,0,1,2.517-3.262,6.855,6.855,0,0,1,4.554-1.467C876.73,490.136,876.828,490.14,876.909,490.147Z" transform="translate(-837.36 -481.97)"/>
        <path id="Path_21" data-name="Path 21" d="M927.478,491.05a9.706,9.706,0,0,1,4.123,3.53,11.725,11.725,0,0,1,1.9,4.933,30.467,30.467,0,0,1,.2,4.736H916.328q.145,3.59,2.5,5.035a6.339,6.339,0,0,0,3.44.9,4.844,4.844,0,0,0,4.748-2.737h6.371a7.794,7.794,0,0,1-2.313,4.313q-3.206,3.481-8.978,3.481a13.008,13.008,0,0,1-8.405-2.936q-3.642-2.936-3.642-9.553,0-6.2,3.287-9.509a11.505,11.505,0,0,1,8.533-3.309A13.586,13.586,0,0,1,927.478,491.05Zm-9.334,5.39a6.482,6.482,0,0,0-1.662,3.694H927.23a5.207,5.207,0,0,0-1.663-3.771,5.465,5.465,0,0,0-3.7-1.286A4.948,4.948,0,0,0,918.143,496.44Z" transform="translate(-868.832 -481.832)"/>
        <path id="Path_22" data-name="Path 22" d="M1002.239,500.053a9.868,9.868,0,0,0,2.492-.547,1.878,1.878,0,0,0,1.345-1.773,2.1,2.1,0,0,0-1.032-2.025,6.522,6.522,0,0,0-3.029-.558,3.977,3.977,0,0,0-3.173,1.095,4.509,4.509,0,0,0-.888,2.189h-6.021a9.129,9.129,0,0,1,1.759-5.145q2.485-3.152,8.531-3.152a15.211,15.211,0,0,1,6.992,1.554q3.056,1.555,3.056,5.867V508.5q0,1.138.044,2.758a3.464,3.464,0,0,0,.372,1.664,2.234,2.234,0,0,0,.919.722v.919h-6.786a6.9,6.9,0,0,1-.394-1.357q-.11-.635-.175-1.445a12.892,12.892,0,0,1-2.995,2.387,9.055,9.055,0,0,1-4.581,1.16,7.9,7.9,0,0,1-5.384-1.85,6.577,6.577,0,0,1-2.125-5.243,6.794,6.794,0,0,1,3.418-6.37,15.263,15.263,0,0,1,5.513-1.532Zm3.815,2.912a6.868,6.868,0,0,1-1.209.6,10.19,10.19,0,0,1-1.675.427l-1.42.263a9.337,9.337,0,0,0-2.868.854,2.849,2.849,0,0,0-1.474,2.649,2.767,2.767,0,0,0,.9,2.31,3.421,3.421,0,0,0,2.19.711,6.522,6.522,0,0,0,3.768-1.182q1.723-1.182,1.789-4.313Z" transform="translate(-923.788 -481.97)"/>
        <path id="Path_23" data-name="Path 23" d="M1064.893,483.046V478.6h3.328v-6.655h6.173V478.6h3.875v4.444h-3.875v12.61a2.84,2.84,0,0,0,.372,1.828,4.1,4.1,0,0,0,2.277.361c.189,0,.39,0,.6-.011s.42-.018.624-.032v4.663l-2.955.109q-4.422.154-6.042-1.532a4.563,4.563,0,0,1-1.051-3.306v-14.69Z" transform="translate(-973.733 -469.648)"/>
        <path id="Path_24" data-name="Path 24" d="M1126.383,470.985h-6.327v-5.758h6.327Zm-6.327,2.846h6.327v23.863h-6.327Z" transform="translate(-1011.103 -465.096)"/>
        <path id="Path_25" data-name="Path 25" d="M1164.127,464.853q.481.033,1.313.1v5.079q-.525-.066-1.762-.1a2.029,2.029,0,0,0-1.708.547,1.988,1.988,0,0,0-.47,1.281v2.014h4.094v4.4H1161.5v19.244h-6.2V478.174h-3.5v-4.4h3.416v-1.533q0-3.83,1.291-5.276,1.356-2.145,6.545-2.145Q1163.645,464.82,1164.127,464.853Z" transform="translate(-1032.609 -464.82)"/>
        <path id="Path_26" data-name="Path 26" d="M1212.29,470.985h-6.327v-5.758h6.327Zm-6.327,2.846h6.327v23.863h-6.327Z" transform="translate(-1069.3 -465.096)"/>
        <path id="Path_27" data-name="Path 27" d="M1253.9,491.05a9.71,9.71,0,0,1,4.123,3.53,11.73,11.73,0,0,1,1.9,4.933,30.452,30.452,0,0,1,.2,4.736h-17.379q.145,3.59,2.5,5.035a6.339,6.339,0,0,0,3.44.9,4.846,4.846,0,0,0,4.748-2.737h6.37a7.787,7.787,0,0,1-2.313,4.313q-3.206,3.481-8.978,3.481a13.009,13.009,0,0,1-8.405-2.936q-3.642-2.936-3.641-9.553,0-6.2,3.287-9.509a11.505,11.505,0,0,1,8.533-3.309A13.588,13.588,0,0,1,1253.9,491.05Zm-9.335,5.39a6.48,6.48,0,0,0-1.662,3.694h10.749a5.207,5.207,0,0,0-1.662-3.771,5.468,5.468,0,0,0-3.7-1.286A4.948,4.948,0,0,0,1244.569,496.44Z" transform="translate(-1089.967 -481.832)"/>
      </g>
    </g>
    <g id="Group_82" data-name="Group 82" transform="translate(89 56.522)">
      <g id="Group_1" data-name="Group 1" transform="translate(0 0)">
        <path id="Path_1" data-name="Path 1" d="M631.688,497.82a10.387,10.387,0,0,0,3.466,14.273l18.924,11.471a10.965,10.965,0,0,1-1.652,1.581c-.155.127-.331.247-.515.374-.092.063-.184.128-.282.184a11.194,11.194,0,0,1-6.113,1.8h-21.88a11.294,11.294,0,0,1-11.293-11.293V494.326a11.3,11.3,0,0,1,11.293-11.293h21.88a11.3,11.3,0,0,1,11.294,11.293v6.614l-10.856-6.579a10.379,10.379,0,0,0-14.265,3.458Z" transform="translate(-612.342 -483.033)" fill="url(#linear-gradient)"/>
      </g>
      <path id="Path_2" data-name="Path 2" d="M692.091,570.913a.535.535,0,0,0-.035.042,9.27,9.27,0,0,1-1.666,1.567c-.155.126-.331.247-.515.374-.092.063-.184.128-.282.183a11.583,11.583,0,0,1-6.3,1.8h-6.705s-7.327-16.616-8.209-21.909l.035.028a10.35,10.35,0,0,0,4.7,6.472l18.924,11.471a.1.1,0,0,0,.036-.036Z" transform="translate(-650.306 -530.411)" fill="#0000de"/>
    </g>
  </g>
</svg>
